# AST/ASF file generated using VICON BodyLanguage
# -----------------------------------------------
:version 1.10
:name VICON
:units
  mass 1.0
  length 0.45
  angle deg
:documentation
   .ast/.asf automatically generated from VICON data using
   VICON BodyBuilder and BodyLanguage model FoxedUp or BRILLIANT.MOD
:root
   order TX TY TZ RX RY RZ
   axis XYZ
   position 0 0 0  
   orientation 0 0 0 
:bonedata
  begin
     id 1 
     name lhipjoint
     direction 0.537252 -0.787203 0.302774 
     length 2.29576 
     axis 0 0 0  XYZ
  end
  begin
     id 2 
     name lfemur
     direction 0.34202 -0.939693 0  
     length 7.31114  
     axis 0 0 20  XYZ
    dof rx ry rz
    limits (-160.0 20.0)
           (-70.0 70.0)
           (-60.0 70.0)
  end
  begin
     id 3 
     name ltibia
     direction 0.34202 -0.939693 0   
     length 8.36008   
     axis 0 0 20   XYZ
    dof rx
    limits (-10.0 170.0)
  end
  begin
     id 4 
     name lfoot
     direction 0.0969116 -0.266263 0.959016   
     length 2.16704   
     axis -90 7.62852e-016 20   XYZ
    dof rx rz
    limits (-45.0 90.0)
           (-70.0 20.0)
  end
  begin
     id 5 
     name ltoes
     direction 1.53563e-011 -4.21779e-011 1   
     length 1.08338   
     axis -90 7.62852e-016 20   XYZ
    dof rx
    limits (-90.0 20.0)
  end
  begin
     id 6 
     name rhipjoint
     direction -0.588228 -0.754791 0.290308   
     length 2.39434  
     axis 0 0 0  XYZ 
  end
  begin
     id 7 
     name rfemur
     direction -0.34202 -0.939693 0   
     length 7.45207   
     axis 0 0 -20   XYZ
    dof rx ry rz
    limits (-160.0 20.0)
           (-70.0 70.0)
           (-70.0 60.0)
  end
  begin
     id 8 
     name rtibia
     direction -0.34202 -0.939693 0   
     length 8.03565   
     axis 0 0 -20   XYZ
    dof rx
    limits (-10.0 170.0)
 end
 begin
     id 9 
     name rfoot
     direction -0.107009 -0.294004 0.949795   
     length 2.11509  
     axis -90 -7.62852e-016 -20   XYZ
    dof rx rz
    limits (-45.0 90.0)
           (-20.0 70.0)
  end
  begin
     id 10 
     name rtoes
     direction -1.53533e-011 -4.22004e-011 1   
     length 1.05493   
     axis -90 -7.62852e-016 -20   XYZ
    dof rx
    limits (-90.0 20.0)
  end
  begin
     id 11 
     name lowerback
     direction -0.0115208 0.997969 -0.0626515   
     length 2.03153   
     axis 0 0 0   XYZ
    dof rx ry rz
    limits (-20.0 45.0)
           (-30.0 30.0)
           (-30.0 30.0)
  end
  begin
     id 12 
     name upperback
     direction -0.00423475 0.999974 -0.00583614   
     length 2.03619   
     axis 0 0 0   XYZ
    dof rx ry rz
    limits (-20.0 45.0)
           (-30.0 30.0)
           (-30.0 30.0)
  end
  begin
     id 13 
     name thorax
     direction 0.00289429 0.999728 0.0231573   
     length 2.03921   
     axis 0 0 0   XYZ
    dof rx ry rz
    limits (-20.0 45.0)
           (-30.0 30.0)
           (-30.0 30.0)
  end
  begin
     id 14 
     name lowerneck
     direction 0.0188995 0.987777 0.154721   
     length 1.78836   
     axis 0 0 0   XYZ
    dof rx ry rz
    limits (-20.0 45.0)
           (-30.0 30.0)
           (-30.0 30.0)
  end
  begin
     id 15 
     name upperneck
     direction -0.00612612 0.992995 -0.118   
     length 1.81789   
     axis 0 0 0   XYZ
    dof rx ry rz
    limits (-20.0 45.0)
           (-30.0 30.0)
           (-30.0 30.0)
  end
  begin
     id 16
     name head
     direction -0.00420226 0.998397 -0.0564482  
     length 1.82234  
     axis 0 0 0   XYZ
    dof rx ry rz
    limits (-20.0 45.0)
           (-30.0 30.0)
           (-30.0 30.0)
  end
  begin
     id 17 
     name lclavicle
     direction 0.916488 0.396539 0.0529676  
     length 3.51732  
     axis 0 0 0   XYZ
    dof ry rz
    limits (-20.0 10.0)
           (0.0 20.0)
  end
  begin
     id 18 
     name lhumerus
     direction 1 -4.4896e-011 8.36962e-028   
     length 5.45077   
     axis 180 -30 -90   XYZ
    dof rx ry rz
    limits (-60.0 90.0)
           (-90.0 90.0)
           (-90.0 90.0)
  end
  begin
     id 19
     name lradius
     direction 1 -4.48962e-011 3.01407e-027   
     length 3.05488   
     axis 180 -30 -90   XYZ
    dof rx
    limits (-10.0 170.0)
  end
  begin
     id 20
     name lwrist
     direction 1 -4.49002e-011 4.72961e-027   
     length 1.52744   
     axis -2.72261e-015 90 90   XYZ
    dof ry
    limits (-180.0 0.0)
 end
  begin
     id 21 
     name lhand
     direction 1 -4.4899e-011 9.45681e-027   
     length 0.638818   
     axis -6.0311e-015 90 90   XYZ
    dof rx rz
    limits (-90.0 90.0)
           (-45.0 45.0)
  end
  begin
     id 22 
     name lfingers
     direction 1 -4.48871e-011 1.88632e-026   
     length 0.515032   
     axis -1.20625e-014 90 90   XYZ
    dof rx
    limits (0.0 90.0)
  end
  begin
     id 23
     name lthumb
     direction 0.707107 -6.34964e-011 0.707107   
     length 0.739485   
     axis -90 45 6.32835e-014   XYZ
    dof rx rz
    limits (-45.0 45.0)
           (-45.0 45.0)
  end
  begin
     id 24 
     name rclavicle
     direction -0.949427 0.303202 0.0815894   
     length 3.76167  
     axis 0 0 0   XYZ 
    dof ry rz
    limits (-10.0 20.0)
           (-20.0 0.0)
  end
  begin
     id 25 
     name rhumerus
     direction -1 -4.48971e-011 -6.43969e-018  
     length 4.88702   
     axis 180 30 90   XYZ
    dof rx ry rz
    limits (-90.0 60.0)
           (-90.0 90.0)
           (-90.0 90.0)
  end
  begin
     id 26 
     name rradius
     direction -1 -4.48987e-011 5.46662e-027   
     length 3.22603   
     axis 180 30 90   XYZ
    dof rx
    limits (-10.0 170.0)
  end
  begin
     id 27 
     name rwrist
     direction -1 -4.48956e-011 4.72476e-027   
     length 1.61302   
     axis -2.72261e-015 -90 -90   XYZ
    dof ry
    limits (-180.0 0.0)
  end
  begin
     id 28
     name rhand
     direction -1 -4.4889e-011 9.43571e-027   
     length 0.716293   
     axis -6.0311e-015 -90 -90   XYZ
    dof rx rz
    limits (-90.0 90.0)
           (-45.0 45.0)
  end
  begin
     id 29
     name rfingers
     direction -1 -4.48887e-011 1.88701e-026   
     length 0.577494   
     axis -1.20625e-014 -90 -90   XYZ
    dof rx
    limits (0.0 90.0)
  end
  begin
     id 30
     name rthumb
     direction -0.707107 -6.34825e-011 0.707107   
     length 0.829169   
     axis -90 -45 -6.32835e-014   XYZ
    dof rx rz
    limits (-45.0 45.0)
           (-45.0 45.0)
  end
:hierarchy
  begin
    root lhipjoint rhipjoint lowerback
    lhipjoint lfemur
    lfemur ltibia
    ltibia lfoot
    lfoot ltoes
    rhipjoint rfemur
    rfemur rtibia
    rtibia rfoot
    rfoot rtoes
    lowerback upperback
    upperback thorax
    thorax lowerneck lclavicle rclavicle
    lowerneck upperneck
    upperneck head
    lclavicle lhumerus
    lhumerus lradius
    lradius lwrist
    lwrist lhand lthumb
    lhand lfingers
    rclavicle rhumerus
    rhumerus rradius
    rradius rwrist
    rwrist rhand rthumb
    rhand rfingers
  end

#!OML:ASF F:\VICON\USERDATA\INSTALL\rory3\rory3.ASF
:FULLY-SPECIFIED
:DEGREES
1
root 1.57206 18.4897 -0.0936106 40.3688 89.787 29.0489
lowerback -11.4505 -2.42084 -0.766366
upperback -3.01509 -3.04379 0.656917
thorax 3.33761 -1.46989 0.685867
lowerneck -10.7974 -12.6174 -7.74901
upperneck 34.7778 -18.3073 6.86912
head 15.4467 -7.58917 1.14484
rclavicle 4.51881e-014 5.1684e-015
rhumerus -30.6414 -12.4048 -81.5705
rradius 39.6017
rwrist -152.788
rhand -25.8889 -9.47071
rfingers 7.12502
rthumb 0.653004 -39.4495
lclavicle 4.51881e-014 5.1684e-015
lhumerus -35.969 -14.0129 92.7111
lradius 34.2029
lwrist 11.2759
lhand -8.22707 26.3804
lfingers 7.12502
lthumb 17.6903 55.5956
rfemur -6.30637 -9.47397 17.0246
rtibia 2.48525
rfoot -7.93715 -2.74042
rtoes -15.5247
lfemur -13.3805 9.76057 -18.6576
ltibia 18.0778
lfoot -15.3054 -4.07479
ltoes -25.6495
2
root 1.57328 18.4899 -0.0944267 60.809 89.8795 49.4076
lowerback -11.4828 -2.46471 -0.760269
upperback -3.06208 -3.10102 0.679042
thorax 3.30842 -1.49712 0.697102
lowerneck -10.7746 -12.61 -7.78623
upperneck 34.7973 -18.2975 6.89377
head 15.4585 -7.58572 1.16385
rclavicle -8.81693e-014 2.13694e-015
rhumerus -30.632 -12.3034 -81.6259
rradius 39.5993
rwrist -152.809
rhand -25.8441 -9.42609
rfingers 7.12502
rthumb 0.69628 -39.4047
lclavicle -8.81693e-014 2.13694e-015
lhumerus -35.9381 -13.9972 92.6939
lradius 34.2301
lwrist 11.1424
lhand -8.05477 26.5044
lfingers 7.12502
lthumb 17.8561 55.7046
rfemur -6.25283 -9.58392 17.0573
rtibia 2.25599
rfoot -7.8302 -2.73955
rtoes -15.62
lfemur -13.5033 9.71196 -18.6459
ltibia 18.1326
lfoot -15.4957 -4.21899
ltoes -24.0361
3
root 1.5766 18.4896 -0.0975543 96.4393 89.9749 85.0305
lowerback -11.4582 -2.48802 -0.674613
upperback -3.08492 -3.14227 0.707518
thorax 3.26898 -1.51678 0.674404
lowerneck -10.7603 -12.612 -7.79251
upperneck 34.8152 -18.2884 6.85912
head 15.4588 -7.58701 1.15347
rclavicle 2.23914e-015 -1.03865e-014
rhumerus -30.6308 -12.2492 -81.649
rradius 39.5976
rwrist -152.843
rhand -25.9343 -9.38673
rfingers 7.12502
rthumb 0.609227 -39.3656
lclavicle 2.23914e-015 -1.03865e-014
lhumerus -35.921 -13.9464 92.6626
lradius 34.2368
lwrist 11.0722
lhand -7.92296 26.4856
lfingers 7.12502
lthumb 17.983 55.6742
rfemur -6.17039 -9.6477 17.1283
rtibia 2.12086
rfoot -7.78167 -2.76186
rtoes -15.6697
lfemur -13.5152 9.73343 -18.5779
ltibia 18.1473
lfoot -15.6182 -4.37192
ltoes -22.3492
4
root 1.58229 18.4892 -0.101346 138.457 89.9622 127.039
lowerback -11.4779 -2.50983 -0.679555
upperback -3.09515 -3.17097 0.735186
thorax 3.27153 -1.53076 0.701202
lowerneck -10.7567 -12.6158 -7.82884
upperneck 34.8285 -18.2736 6.82286
head 15.4623 -7.58993 1.14704
rclavicle 1.95215e-014 -7.70291e-015
rhumerus -30.6324 -12.1106 -81.669
rradius 39.65
rwrist -152.989
rhand -26.007 -9.25697
rfingers 7.12502
rthumb 0.538953 -39.236
lclavicle 1.95215e-014 -7.70291e-015
lhumerus -35.8829 -13.8819 92.6895
lradius 34.2292
lwrist 11.0651
lhand -8.03235 26.368
lfingers 7.12502
lthumb 17.8777 55.5663
rfemur -5.99868 -9.67817 17.1043
rtibia 1.82493
rfoot -7.65509 -2.82506
rtoes -15.6822
lfemur -13.5265 9.72495 -18.5884
ltibia 18.1759
lfoot -15.4791 -4.3056
ltoes -23.9595
5
root 1.59044 18.4874 -0.105206 216.645 90.0135 205.222
lowerback -11.5392 -2.50369 -0.624897
upperback -3.09224 -3.16882 0.746393
thorax 3.30576 -1.52923 0.679856
lowerneck -10.7224 -12.605 -7.88309
upperneck 34.8269 -18.2522 6.8447
head 15.4616 -7.58617 1.17044
rclavicle 2.76498e-015 -7.70291e-015
rhumerus -30.6533 -11.8666 -81.7475
rradius 39.7468
rwrist -153.236
rhand -25.9129 -9.15708
rfingers 7.12502
rthumb 0.62985 -39.1359
lclavicle 2.76498e-015 -7.70291e-015
lhumerus -35.8702 -13.7801 92.6682
lradius 34.2983
lwrist 10.9244
lhand -7.91546 26.4519
lfingers 7.12502
lthumb 17.9902 55.6399
rfemur -5.72009 -9.64464 17.0943
rtibia 1.34665
rfoot -7.44616 -2.92649
rtoes -15.8679
lfemur -13.5225 9.76881 -18.568
ltibia 18.2131
lfoot -15.4325 -4.25191
ltoes -25.9372
6
root 1.59582 18.4869 -0.107556 181.73 90.0485 170.301
lowerback -11.5488 -2.49989 -0.626266
upperback -3.10746 -3.16404 0.776794
thorax 3.29687 -1.52653 0.712836
lowerneck -10.7103 -12.604 -7.94155
upperneck 34.8554 -18.2313 6.82408
head 15.4751 -7.58633 1.17542
rclavicle 8.45034e-015 5.1684e-015
rhumerus -30.6571 -11.7575 -81.7832
rradius 39.785
rwrist -153.241
rhand -25.8513 -9.16967
rfingers 7.12502
rthumb 0.68936 -39.1483
lclavicle 8.45034e-015 5.1684e-015
lhumerus -35.8501 -13.687 92.6803
lradius 34.3461
lwrist 10.8411
lhand -7.81206 26.4638
lfingers 7.12502
lthumb 18.0897 55.6426
rfemur -5.56496 -9.61053 17.0851
rtibia 1.06731
rfoot -7.34032 -2.94504
rtoes -15.9423
lfemur -13.5076 9.74652 -18.5628
ltibia 18.2249
lfoot -15.5796 -4.14748
ltoes -26.8896
7
root 1.60023 18.4862 -0.109014 142.012 90.0921 130.572
lowerback -11.5433 -2.5086 -0.597634
upperback -3.12008 -3.18074 0.83603
thorax 3.28291 -1.53445 0.756402
lowerneck -10.7529 -12.5838 -7.97443
upperneck 34.856 -18.1834 6.79848
head 15.4805 -7.57264 1.17611
rclavicle 1.15505e-017 6.95746e-016
rhumerus -30.6609 -11.6926 -81.7842
rradius 39.8512
rwrist -153.201
rhand -25.9 -9.24725
rfingers 7.12502
rthumb 0.642297 -39.226
lclavicle 1.15505e-017 6.95746e-016
lhumerus -35.804 -13.5762 92.6991
lradius 34.3332
lwrist 10.8911
lhand -7.9847 26.2907
lfingers 7.12502
lthumb 17.9236 55.4848
rfemur -5.3957 -9.58895 17.1366
rtibia 0.746588
rfoot -7.1996 -2.96773
rtoes -15.9935
lfemur -13.5051 9.77081 -18.5
ltibia 18.2294
lfoot -15.6676 -4.11676
ltoes -27.2435
8
root 1.60455 18.4864 -0.111411 139.411 90.0848 127.984
lowerback -11.5527 -2.50302 -0.59104
upperback -3.11312 -3.17407 0.831289
thorax 3.29451 -1.5312 0.748172
lowerneck -10.7398 -12.589 -7.98217
upperneck 34.834 -18.1953 6.81876
head 15.4719 -7.57752 1.18408
rclavicle -4.57754e-014 1.31198e-014
rhumerus -30.6707 -11.6508 -81.8303
rradius 39.9229
rwrist -153.272
rhand -25.8903 -9.26614
rfingers 7.12502
rthumb 0.651727 -39.2449
lclavicle -4.57754e-014 1.31198e-014
lhumerus -35.7877 -13.5722 92.7014
lradius 34.3373
lwrist 10.9376
lhand -8.11044 26.1649
lfingers 7.12502
lthumb 17.8026 55.37
rfemur -5.09203 -9.60213 17.0997
rtibia 0.254794
rfoot -7.01512 -2.98808
rtoes -15.8171
lfemur -13.47 9.79502 -18.5051
ltibia 18.2291
lfoot -15.6645 -4.14893
ltoes -26.977
9
root 1.60999 18.4878 -0.111865 153.629 90.0589 142.228
lowerback -11.5514 -2.48758 -0.630003
upperback -3.09969 -3.14856 0.802778
thorax 3.30778 -1.51899 0.743788
lowerneck -10.7647 -12.6129 -7.91904
upperneck 34.8718 -18.2373 6.78695
head 15.488 -7.58791 1.15198
rclavicle -4.46218e-014 -6.95746e-015
rhumerus -30.6714 -11.7559 -81.8461
rradius 39.9283
rwrist -153.346
rhand -25.797 -9.28549
rfingers 7.12502
rthumb 0.741855 -39.2639
lclavicle -4.46218e-014 -6.95746e-015
lhumerus -35.7779 -13.6881 92.7153
lradius 34.3509
lwrist 10.9733
lhand -8.12949 26.1796
lfingers 7.12502
lthumb 17.7842 55.3864
rfemur -4.88789 -9.61653 17.0414
rtibia 2.06736e-014
rfoot -6.92629 -3.01092
rtoes -15.7124
lfemur -13.4116 9.7974 -18.5364
ltibia 18.2207
lfoot -15.6448 -4.16725
ltoes -26.6971
